<svg width="32" height="33" viewBox="0 0 32 33" fill="none" xmlns="http://www.w3.org/2000/svg">
<path d="M8.67981 11.7753V4.08183H12.6459V11.7753H12.6324L12.6529 11.7875L19.1468 15.6736L14.1865 29.3529H7.13926L2.17898 15.6736L8.67287 11.7875L8.67981 11.7991V11.7753ZM26.6928 27.3841H26.7071V27.3698V24.1944V24.1801H26.6928H22.3653C22.0859 24.1801 21.8523 24.0858 21.6636 23.8973C21.4751 23.7086 21.3809 23.475 21.3809 23.1954C21.3809 22.916 21.4751 22.6826 21.6636 22.4941C21.8523 22.3058 22.0859 22.2116 22.3653 22.2116H26.6928H26.7071V22.1974V19.0219V19.0077H26.6928H22.3653C22.0859 19.0077 21.8523 18.9133 21.6636 18.7246C21.4751 18.5359 21.3809 18.3023 21.3809 18.0229C21.3809 17.7433 21.4751 17.5099 21.6636 17.3216C21.8523 17.1331 22.0859 17.0389 22.3653 17.0389H26.6928H26.7071V17.0246V13.8495V13.8352H26.6928H22.3653C22.0859 13.8352 21.8523 13.7408 21.6636 13.5521C21.4751 13.3634 21.3809 13.1298 21.3809 12.8502C21.3809 12.5708 21.4751 12.3374 21.6636 12.1489C21.8523 11.9606 22.0859 11.8664 22.3653 11.8664H26.6928H26.7071V11.8522V8.67675V8.66248H26.6928H22.3653C22.0859 8.66248 21.8523 8.56809 21.6636 8.37937C21.4751 8.19067 21.3809 7.95711 21.3809 7.67775C21.3809 7.39816 21.4751 7.16472 21.6636 6.97646C21.8523 6.78796 22.0859 6.69368 22.3653 6.69368H27.4608C28.1297 6.69368 28.6954 6.92526 29.1587 7.38857C29.6221 7.85188 29.8536 8.41757 29.8536 9.08653V26.96C29.8536 27.629 29.6221 28.1947 29.1587 28.658C28.6954 29.1213 28.1297 29.3529 27.4608 29.3529H22.3653C22.0859 29.3529 21.8523 29.2585 21.6636 29.0697C21.4751 28.881 21.3809 28.6475 21.3809 28.3681C21.3809 28.0885 21.4751 27.8551 21.6636 27.6668C21.8523 27.4783 22.0859 27.3841 22.3653 27.3841H26.6928ZM8.51897 27.3746L8.52238 27.3841H8.53239H12.7934H12.8034L12.8068 27.3746L16.7349 16.5225L16.7389 16.5114L16.7288 16.5054L12.2168 13.8116L12.218 13.8096H12.2095H9.11627V13.8073L9.10896 13.8116L4.59699 16.5054L4.58688 16.5114L4.59088 16.5225L8.51897 27.3746Z" fill="#FDFDFD" stroke="#FDFDFD" stroke-width="0.0285333"/>
</svg>
