<svg width="20" height="20" viewBox="0 0 20 20" fill="none" xmlns="http://www.w3.org/2000/svg">
<path d="M5.20835 13.9752H10.625V12.8094H5.20835V13.9752ZM13.6258 13.9752H14.7917V6.02478H13.6258V13.9752ZM5.20835 10.5808H10.625V9.41499H5.20835V10.5808ZM5.20835 7.19062H10.625V6.02478H5.20835V7.19062ZM3.6721 16.9319C3.27834 16.9319 2.94314 16.7935 2.66647 16.5169C2.38994 16.2403 2.25168 15.9052 2.25168 15.5114V4.48853C2.25168 4.09478 2.38994 3.75964 2.66647 3.48311C2.94314 3.20645 3.27834 3.06812 3.6721 3.06812H16.3279C16.7217 3.06812 17.0569 3.20645 17.3336 3.48311C17.6101 3.75964 17.7483 4.09478 17.7483 4.48853V15.5114C17.7483 15.9052 17.6101 16.2403 17.3336 16.5169C17.0569 16.7935 16.7217 16.9319 16.3279 16.9319H3.6721ZM3.67397 15.766H16.3261C16.3902 15.766 16.449 15.7393 16.5025 15.6858C16.5558 15.6325 16.5825 15.5737 16.5825 15.5096V4.49041C16.5825 4.42624 16.5558 4.36749 16.5025 4.31416C16.449 4.26068 16.3902 4.23395 16.3261 4.23395H3.67397C3.6098 4.23395 3.55098 4.26068 3.49751 4.31416C3.44418 4.36749 3.41751 4.42624 3.41751 4.49041V15.5096C3.41751 15.5737 3.44418 15.6325 3.49751 15.6858C3.55098 15.7393 3.6098 15.766 3.67397 15.766Z" fill="#727272"/>
</svg>
