<svg width="294" height="82" viewBox="0 0 294 82" fill="none" xmlns="http://www.w3.org/2000/svg">
<path d="M87.2653 34.4968C86.1123 27.9008 81.9124 21.8494 76.3536 16.9478C70.4819 11.8042 63.1772 7.91111 55.5266 4.6232C51.3349 2.81451 46.9291 1.14702 42.2103 0.790662C37.4915 0.434303 32.3691 1.59751 29.4045 4.61647C24.9245 2.86158 20.3457 1.07978 15.4045 0.77049C10.4634 0.461198 4.99519 1.94042 2.4505 5.42332C0.605804 7.95145 0.564628 11.0578 0.564628 14.0028L0.63051 46.9492C0.507798 48.2498 0.791141 49.5545 1.45403 50.7414C3.0105 53.0342 7.69635 53.1888 9.4834 51.0171C10.521 49.753 10.554 48.1326 10.554 46.613V11.1587C10.4842 10.6046 10.6313 10.0468 10.974 9.56515C11.2427 9.33365 11.5674 9.15018 11.9275 9.02634C12.2875 8.90251 12.6751 8.841 13.0657 8.84571C16.3598 8.63727 19.5139 9.64584 22.4704 10.7889C27.7616 12.8429 32.7372 15.4 37.2938 18.4069C44.0797 22.8849 50.1408 28.7883 51.2937 35.8886C52.0514 40.5952 50.5443 45.4027 47.909 49.632C45.2738 53.8612 41.5761 57.5794 37.7303 61.1363C34.3209 64.2897 30.7386 67.3759 26.4315 69.6889C22.1245 72.0019 17.0186 73.508 11.8799 73.2054C11.6721 73.2121 11.4648 73.1852 11.2698 73.1264C11.0748 73.0675 10.8959 72.9779 10.7434 72.8625C10.5305 72.5963 10.4401 72.2771 10.4881 71.9615L10.5787 66.3606C10.5787 64.9218 10.5787 63.4022 9.68104 62.1718C7.96811 59.8521 3.0352 59.9529 1.4458 62.3398C0.919484 63.2582 0.638749 64.2576 0.622275 65.2714C0.432838 67.5374 0.449353 69.8118 0.671686 72.0758C0.778744 73.2323 0.951685 74.3821 1.17404 75.5318C1.27429 76.4004 1.77467 77.2054 2.57403 77.7843C5.71166 80.3931 10.4387 81.4151 14.8198 81.2538C19.761 81.0655 24.5045 79.5459 29.0833 77.9658C32.4433 80.7226 37.5738 81.5361 42.3173 81.2C53.5502 80.4066 63.0207 74.1131 70.6383 67.3289C75.5795 62.9517 80.0759 58.2047 83.2465 52.8594C86.4171 47.514 88.1876 41.5231 87.4629 35.6129C87.3888 35.2297 87.3476 34.8599 87.2653 34.4968ZM72.4418 52.3618C69.3948 56.4498 65.4172 60.0605 61.316 63.5031C58.0219 66.2396 54.6455 68.9358 50.6102 70.8185C48.596 71.7546 46.4189 72.4347 44.1538 72.8356C43.0296 73.0322 41.8854 73.1425 40.7362 73.1651C39.822 73.1651 38.0844 73.2861 37.3432 72.8423C38.6115 71.4102 40.6867 70.2066 42.2267 68.9493C43.7667 67.6919 45.422 66.2598 46.9455 64.8344C49.9973 62.0401 52.7111 59.0116 55.049 55.7909C59.6937 49.2554 62.3701 41.5567 60.9454 34.0934C59.8126 28.8173 57.0489 23.8647 52.9161 19.7046C48.7886 15.5504 43.9225 11.9242 38.4797 8.94657C42.2559 8.84018 46.0013 9.53518 49.3502 10.9637C54.0459 12.8852 58.498 15.1801 62.6419 17.8152C69.4277 22.0915 75.6124 27.6588 77.2595 34.5237C78.5689 39.9027 76.8724 45.6179 73.7101 50.4926C73.2983 51.1314 72.8618 51.7499 72.4089 52.3618H72.4418Z" fill="#A020F0"/>
<path d="M97.6243 71.7528V10.2473H117.965C122.212 10.2473 126.195 11.0527 129.915 12.6636C133.634 14.2452 136.9 16.4564 139.712 19.2974C142.523 22.1091 144.72 25.3747 146.301 29.0943C147.912 32.7847 148.718 36.7532 148.718 41C148.718 45.2469 147.912 49.2301 146.301 52.9497C144.72 56.64 142.523 59.9057 139.712 62.7466C136.9 65.5583 133.634 67.7696 129.915 69.3804C126.195 70.962 122.212 71.7528 117.965 71.7528H97.6243ZM106.762 62.6148H117.965C120.952 62.6148 123.735 62.0583 126.312 60.9454C128.919 59.8324 131.218 58.2802 133.21 56.2885C135.23 54.2969 136.797 51.9978 137.91 49.3912C139.023 46.7845 139.58 43.9875 139.58 41C139.58 38.0126 139.023 35.2156 137.91 32.6089C136.797 30.0023 135.23 27.7032 133.21 25.7115C131.218 23.7199 128.919 22.1677 126.312 21.0547C123.735 19.9417 120.952 19.3853 117.965 19.3853H106.762V62.6148Z" fill="#A020F0"/>
<path d="M156.303 27.8203H165.441V71.7528H156.303V27.8203ZM160.96 21.4501C159.554 21.4501 158.383 20.9961 157.446 20.0882C156.508 19.1802 156.04 18.038 156.04 16.6614C156.04 15.3142 156.508 14.1866 157.446 13.2786C158.383 12.3414 159.54 11.8728 160.916 11.8728C162.264 11.8728 163.406 12.3414 164.343 13.2786C165.28 14.1866 165.749 15.3142 165.749 16.6614C165.749 18.038 165.28 19.1802 164.343 20.0882C163.435 20.9961 162.307 21.4501 160.96 21.4501Z" fill="#A020F0"/>
<path d="M173.071 71.7529V27.8204H182.209V32.4773C183.732 30.6614 185.592 29.2263 187.788 28.1719C190.014 27.1175 192.416 26.5903 194.993 26.5903C198.127 26.5903 201.012 27.3518 203.648 28.8748C206.284 30.3685 208.378 32.3601 209.93 34.8496C211.483 32.3601 213.547 30.3685 216.125 28.8748C218.732 27.3518 221.602 26.5903 224.736 26.5903C227.987 26.5903 230.945 27.3811 233.61 28.9627C236.275 30.5443 238.399 32.6677 239.98 35.3329C241.562 37.9981 242.353 40.9562 242.353 44.2073V71.7529H233.215V46.5357C233.215 44.6026 232.746 42.8307 231.809 41.2198C230.872 39.609 229.612 38.3057 228.031 37.3099C226.449 36.3141 224.692 35.8161 222.759 35.8161C220.826 35.8161 219.068 36.2848 217.487 37.222C215.905 38.1592 214.646 39.4333 213.709 41.0441C212.771 42.655 212.303 44.4855 212.303 46.5357V71.7529H203.165V46.5357C203.165 44.4855 202.696 42.655 201.759 41.0441C200.822 39.4333 199.548 38.1592 197.937 37.222C196.355 36.2848 194.598 35.8161 192.665 35.8161C190.761 35.8161 189.004 36.3141 187.393 37.3099C185.811 38.3057 184.552 39.609 183.615 41.2198C182.678 42.8307 182.209 44.6026 182.209 46.5357V71.7529H173.071Z" fill="#A020F0"/>
<path d="M271.641 71.7528C267.599 71.7528 263.909 70.7131 260.57 68.6336C257.26 66.5541 254.61 63.7718 252.618 60.2864C250.656 56.7719 249.675 52.8911 249.675 48.6443C249.675 45.4226 250.246 42.4206 251.388 39.6382C252.53 36.8265 254.097 34.3663 256.089 32.2575C258.11 30.1195 260.453 28.45 263.118 27.2492C265.783 26.0484 268.624 25.448 271.641 25.448C275.009 25.448 278.099 26.1509 280.911 27.5568C283.722 28.9333 286.124 30.8517 288.115 33.3119C290.107 35.7428 291.571 38.5545 292.509 41.7469C293.446 44.9101 293.724 48.2782 293.343 51.8514H259.471C259.852 53.8723 260.584 55.7028 261.668 57.343C262.781 58.9538 264.187 60.2279 265.886 61.1651C267.614 62.1023 269.532 62.5856 271.641 62.6149C273.867 62.6149 275.888 62.0584 277.703 60.9454C279.549 59.8325 281.057 58.2948 282.229 56.3325L291.498 58.4852C289.741 62.3806 287.09 65.573 283.547 68.0625C280.003 70.5227 276.034 71.7528 271.641 71.7528ZM259.164 44.8661H284.118C283.825 42.7574 283.078 40.8537 281.877 39.1549C280.706 37.4269 279.226 36.065 277.44 35.0692C275.683 34.0441 273.75 33.5316 271.641 33.5316C269.561 33.5316 267.628 34.0295 265.842 35.0253C264.084 36.0211 262.62 37.383 261.448 39.111C260.306 40.8097 259.545 42.7281 259.164 44.8661Z" fill="#A020F0"/>
</svg>
