<svg width="36" height="36" viewBox="0 0 36 36" fill="none" xmlns="http://www.w3.org/2000/svg">
<rect width="36" height="36" rx="8" fill="#A020F0"/>
<path d="M11.7305 12.0625H24.2305C24.3765 12.0624 24.5224 12.0717 24.6672 12.0903C24.6181 11.7456 24.4997 11.4145 24.3192 11.1169C24.1387 10.8193 23.8998 10.5613 23.6168 10.3585C23.3339 10.1557 23.0129 10.0122 22.673 9.93688C22.3332 9.86152 21.9816 9.85575 21.6395 9.91994L11.3594 11.675H11.3477C10.7024 11.7984 10.1285 12.1635 9.74336 12.6957C10.3237 12.283 11.0183 12.0616 11.7305 12.0625ZM24.2305 13H11.7305C11.0676 13.0007 10.4322 13.2644 9.9635 13.733C9.49482 14.2017 9.23119 14.8372 9.23047 15.5V23C9.23119 23.6628 9.49482 24.2983 9.9635 24.767C10.4322 25.2357 11.0676 25.4993 11.7305 25.5H24.2305C24.8933 25.4993 25.5288 25.2357 25.9974 24.767C26.4661 24.2983 26.7297 23.6628 26.7305 23V15.5C26.7297 14.8372 26.4661 14.2017 25.9974 13.733C25.5288 13.2644 24.8933 13.0007 24.2305 13ZM22.375 20.5C22.1278 20.5 21.8861 20.4267 21.6805 20.2894C21.475 20.152 21.3148 19.9568 21.2201 19.7284C21.1255 19.5 21.1008 19.2486 21.149 19.0062C21.1972 18.7637 21.3163 18.5409 21.4911 18.3661C21.6659 18.1913 21.8887 18.0723 22.1311 18.024C22.3736 17.9758 22.6249 18.0006 22.8534 18.0952C23.0818 18.1898 23.277 18.35 23.4143 18.5556C23.5517 18.7611 23.625 19.0028 23.625 19.25C23.625 19.5815 23.4933 19.8995 23.2589 20.1339C23.0245 20.3683 22.7065 20.5 22.375 20.5Z" fill="#E8E8F5"/>
<path d="M9.25 18.1367V14.25C9.25 13.4035 9.71875 11.9844 11.3457 11.677C12.7266 11.418 14.0938 11.418 14.0938 11.418C14.0938 11.418 14.9922 12.043 14.25 12.043C13.5078 12.043 13.5273 13 14.25 13C14.9727 13 14.25 13.918 14.25 13.918L11.3398 17.2188L9.25 18.1367Z" fill="#E8E8F5"/>
</svg>
